<?xml version="1.0" encoding="UTF-8" standalone="no"?>
<svg width="200px" height="200px" viewBox="0 0 200 200" version="1.1" xmlns="http://www.w3.org/2000/svg" xmlns:xlink="http://www.w3.org/1999/xlink">
    <!-- Generator: Sketch 3.7.2 (28276) - http://www.bohemiancoding.com/sketch -->
    <title>3</title>
    <desc>Created with Sketch.</desc>
    <defs>
        <rect id="path-1" x="0" y="0" width="200" height="200"></rect>
    </defs>
    <g id="pattern" stroke="none" stroke-width="1" fill="none" fill-rule="evenodd">
        <g id="3">
            <g>
                <mask id="mask-2" fill="white">
                    <use xlink:href="#path-1"></use>
                </mask>
                <use id="Mask" fill-opacity="0" fill="#D8D8D8" xlink:href="#path-1"></use>
                <g id="Group" mask="url(#mask-2)" stroke="#000000" stroke-width="0.985221675" stroke-opacity="0.02">
                    <rect id="Rectangle-path" fill-opacity="0.132666667" fill="#222222" x="0.328407225" y="0.328966521" width="34.8111658" height="34.8704512"></rect>
                    <rect id="Rectangle-path" fill-opacity="0.132666667" fill="#222222" x="165.056613" y="0.328966521" width="34.8111658" height="34.8704512"></rect>
                    <rect id="Rectangle-path" fill-opacity="0.132666667" fill="#222222" x="0.328407225" y="190.864655" width="34.8111658" height="34.8704512"></rect>
                    <rect id="Rectangle-path" fill-opacity="0.132666667" fill="#222222" x="165.056613" y="190.864655" width="34.8111658" height="34.8704512"></rect>
                    <rect id="Rectangle-path" fill-opacity="0.106666667" fill="#DDDDDD" x="82.69251" y="47.9628888" width="34.8111658" height="34.8704512"></rect>
                    <rect id="Rectangle-path" fill-opacity="0.0893333333" fill="#DDDDDD" x="0.328407225" y="95.596811" width="34.8111658" height="34.8704512"></rect>
                    <rect id="Rectangle-path" fill-opacity="0.0893333333" fill="#DDDDDD" x="165.056613" y="95.596811" width="34.8111658" height="34.8704512"></rect>
                    <rect id="Rectangle-path" fill-opacity="0.0286666667" fill="#222222" x="82.69251" y="143.230733" width="34.8111658" height="34.8704512"></rect>
                    <polyline id="Shape" fill-opacity="0.115333333" fill="#222222" points="35.1395731 0.328966521 65.286927 17.7641921 35.1395731 35.1994178 35.1395731 0.328966521"></polyline>
                    <polyline id="Shape" fill-opacity="0.115333333" fill="#222222" transform="translate(50.213250, 208.299881) scale(1, -1) translate(-50.213250, -208.299881) " points="35.1395731 190.864655 65.286927 208.299881 35.1395731 225.735107 35.1395731 190.864655"></polyline>
                    <polyline id="Shape" fill-opacity="0.0286666667" fill="#222222" transform="translate(149.982936, 17.764192) scale(-1, 1) translate(-149.982936, -17.764192) " points="134.909259 0.328966521 165.056613 17.7641921 134.909259 35.1994178 134.909259 0.328966521"></polyline>
                    <polyline id="Shape" fill-opacity="0.0286666667" fill="#222222" transform="translate(149.982936, 208.299881) scale(-1, -1) translate(-149.982936, -208.299881) " points="134.909259 190.864655 165.056613 208.299881 134.909259 225.735107 134.909259 190.864655"></polyline>
                    <polyline id="Shape" fill-opacity="0.141333333" fill="#DDDDDD" points="117.503676 47.9628888 147.65103 65.3981144 117.503676 82.83334 117.503676 47.9628888"></polyline>
                    <polyline id="Shape" fill-opacity="0.098" fill="#222222" transform="translate(67.618833, 65.398114) scale(-1, 1) translate(-67.618833, -65.398114) " points="52.545156 47.9628888 82.69251 65.3981144 52.545156 82.83334 52.545156 47.9628888"></polyline>
                    <polyline id="Shape" fill-opacity="0.072" fill="#DDDDDD" transform="translate(132.577353, 160.665959) scale(1, -1) translate(-132.577353, -160.665959) " points="117.503676 143.230733 147.65103 160.665959 117.503676 178.101184 117.503676 143.230733"></polyline>
                    <polyline id="Shape" fill-opacity="0.0633333333" fill="#222222" transform="translate(67.618833, 160.665959) scale(-1, -1) translate(-67.618833, -160.665959) " points="52.545156 143.230733 82.69251 160.665959 52.545156 178.101184 52.545156 143.230733"></polyline>
                    <polyline id="Shape" fill-opacity="0.0373333333" fill="#DDDDDD" points="35.1395731 95.596811 65.286927 113.032037 35.1395731 130.467262 35.1395731 95.596811"></polyline>
                    <polyline id="Shape" fill-opacity="0.098" fill="#222222" transform="translate(149.982936, 113.032037) scale(-1, 1) translate(-149.982936, -113.032037) " points="134.909259 95.596811 165.056613 113.032037 134.909259 130.467262 134.909259 95.596811"></polyline>
                    <rect id="Rectangle-path" fill-opacity="0.072" fill="#DDDDDD" transform="translate(58.916042, 41.581153) rotate(-30.000000) translate(-58.916042, -41.581153) " x="41.5104586" y="24.1459276" width="34.8111658" height="34.8704512"></rect>
                    <rect id="Rectangle-path" fill-opacity="0.072" fill="#DDDDDD" transform="translate(141.280144, 41.581153) rotate(210.000000) translate(-141.280144, -41.581153) " x="123.874561" y="24.1459276" width="34.8111658" height="34.8704512"></rect>
                    <rect id="Rectangle-path" fill-opacity="0.098" fill="#222222" transform="translate(41.510459, 84.543321) rotate(30.000000) translate(-41.510459, -84.543321) " x="24.1048757" y="67.1080952" width="34.8111658" height="34.8704512"></rect>
                    <rect id="Rectangle-path" fill-opacity="0.124" fill="#DDDDDD" transform="translate(158.685727, 84.543321) rotate(150.000000) translate(-158.685727, -84.543321) " x="141.280144" y="67.1080952" width="34.8111658" height="34.8704512"></rect>
                    <rect id="Rectangle-path" fill-opacity="0.0893333333" fill="#DDDDDD" transform="translate(41.510459, 141.520752) rotate(-30.000000) translate(-41.510459, -141.520752) " x="24.1048757" y="124.085527" width="34.8111658" height="34.8704512"></rect>
                    <rect id="Rectangle-path" fill-opacity="0.02" fill="#DDDDDD" transform="translate(158.685727, 141.520752) rotate(210.000000) translate(-158.685727, -141.520752) " x="141.280144" y="124.085527" width="34.8111658" height="34.8704512"></rect>
                    <rect id="Rectangle-path" fill-opacity="0.046" fill="#222222" transform="translate(58.916042, 184.482920) rotate(30.000000) translate(-58.916042, -184.482920) " x="41.5104586" y="167.047694" width="34.8111658" height="34.8704512"></rect>
                    <rect id="Rectangle-path" fill-opacity="0.115333333" fill="#222222" transform="translate(141.280144, 184.482920) rotate(150.000000) translate(-141.280144, -184.482920) " x="123.874561" y="167.047694" width="34.8111658" height="34.8704512"></rect>
                </g>
            </g>
        </g>
    </g>
</svg>