<?xml version="1.0" encoding="UTF-8" standalone="no"?>
<svg width="200px" height="200px" viewBox="0 0 200 200" version="1.1" xmlns="http://www.w3.org/2000/svg" xmlns:xlink="http://www.w3.org/1999/xlink">
    <!-- Generator: Sketch 3.7.2 (28276) - http://www.bohemiancoding.com/sketch -->
    <title>7</title>
    <desc>Created with Sketch.</desc>
    <defs>
        <rect id="path-1" x="0" y="0" width="200" height="200"></rect>
    </defs>
    <g id="pattern" stroke="none" stroke-width="1" fill="none" fill-rule="evenodd">
        <g id="7">
            <g>
                <mask id="mask-2" fill="white">
                    <use xlink:href="#path-1"></use>
                </mask>
                <use id="Mask" fill-opacity="0" fill="#D8D8D8" xlink:href="#path-1"></use>
                <g id="Group" mask="url(#mask-2)" stroke-width="3.73333333">
                    <g transform="translate(-40.000000, -64.000000)" id="Shape">
                        <path d="M0,166.369318 C32.6666667,124.309659 60.6666667,124.309659 93.3333333,166.369318 C126,208.428977 154,208.428977 186.666667,166.369318 C219.333333,124.309659 247.333333,124.309659 280,166.369318" stroke="#222222" opacity="0.15"></path>
                        <path d="M0,35.5170455 C32.6666667,-6.54261364 60.6666667,-6.54261364 93.3333333,35.5170455 C126,77.5767045 154,77.5767045 186.666667,35.5170455 C219.333333,-6.54261364 247.333333,-6.54261364 280,35.5170455" stroke="#222222" opacity="0.132666667"></path>
                        <path d="M0,170.107955 C32.6666667,128.048295 60.6666667,128.048295 93.3333333,170.107955 C126,212.167614 154,212.167614 186.666667,170.107955 C219.333333,128.048295 247.333333,128.048295 280,170.107955" stroke="#222222" opacity="0.132666667"></path>
                        <path d="M0,39.2556818 C32.6666667,-2.80397727 60.6666667,-2.80397727 93.3333333,39.2556818 C126,81.3153409 154,81.3153409 186.666667,39.2556818 C219.333333,-2.80397727 247.333333,-2.80397727 280,39.2556818" stroke="#222222" opacity="0.046"></path>
                        <path d="M0,173.846591 C32.6666667,131.786932 60.6666667,131.786932 93.3333333,173.846591 C126,215.90625 154,215.90625 186.666667,173.846591 C219.333333,131.786932 247.333333,131.786932 280,173.846591" stroke="#222222" opacity="0.046"></path>
                        <path d="M0,42.9943182 C32.6666667,0.934659091 60.6666667,0.934659091 93.3333333,42.9943182 C126,85.0539773 154,85.0539773 186.666667,42.9943182 C219.333333,0.934659091 247.333333,0.934659091 280,42.9943182" stroke="#DDDDDD" opacity="0.0893333333"></path>
                        <path d="M0,177.585227 C32.6666667,135.525568 60.6666667,135.525568 93.3333333,177.585227 C126,219.644886 154,219.644886 186.666667,177.585227 C219.333333,135.525568 247.333333,135.525568 280,177.585227" stroke="#DDDDDD" opacity="0.0893333333"></path>
                        <path d="M0,46.7329545 C32.6666667,4.67329545 60.6666667,4.67329545 93.3333333,46.7329545 C126,88.7926136 154,88.7926136 186.666667,46.7329545 C219.333333,4.67329545 247.333333,4.67329545 280,46.7329545" stroke="#DDDDDD" opacity="0.0893333333"></path>
                        <path d="M0,181.323864 C32.6666667,139.264205 60.6666667,139.264205 93.3333333,181.323864 C126,223.383523 154,223.383523 186.666667,181.323864 C219.333333,139.264205 247.333333,139.264205 280,181.323864" stroke="#DDDDDD" opacity="0.0893333333"></path>
                        <path d="M0,50.4715909 C32.6666667,8.41193182 60.6666667,8.41193182 93.3333333,50.4715909 C126,92.53125 154,92.53125 186.666667,50.4715909 C219.333333,8.41193182 247.333333,8.41193182 280,50.4715909" stroke="#222222" opacity="0.098"></path>
                        <path d="M0,185.0625 C32.6666667,143.002841 60.6666667,143.002841 93.3333333,185.0625 C126,227.122159 154,227.122159 186.666667,185.0625 C219.333333,143.002841 247.333333,143.002841 280,185.0625" stroke="#222222" opacity="0.098"></path>
                        <path d="M0,54.2102273 C32.6666667,12.1505682 60.6666667,12.1505682 93.3333333,54.2102273 C126,96.2698864 154,96.2698864 186.666667,54.2102273 C219.333333,12.1505682 247.333333,12.1505682 280,54.2102273" stroke="#DDDDDD" opacity="0.02"></path>
                        <path d="M0,188.801136 C32.6666667,146.741477 60.6666667,146.741477 93.3333333,188.801136 C126,230.860795 154,230.860795 186.666667,188.801136 C219.333333,146.741477 247.333333,146.741477 280,188.801136" stroke="#DDDDDD" opacity="0.02"></path>
                        <path d="M0,57.9488636 C32.6666667,15.8892045 60.6666667,15.8892045 93.3333333,57.9488636 C126,100.008523 154,100.008523 186.666667,57.9488636 C219.333333,15.8892045 247.333333,15.8892045 280,57.9488636" stroke="#222222" opacity="0.0806666667"></path>
                        <path d="M0,192.539773 C32.6666667,150.480114 60.6666667,150.480114 93.3333333,192.539773 C126,234.599432 154,234.599432 186.666667,192.539773 C219.333333,150.480114 247.333333,150.480114 280,192.539773" stroke="#222222" opacity="0.0806666667"></path>
                        <path d="M0,61.6875 C32.6666667,19.6278409 60.6666667,19.6278409 93.3333333,61.6875 C126,103.747159 154,103.747159 186.666667,61.6875 C219.333333,19.6278409 247.333333,19.6278409 280,61.6875" stroke="#DDDDDD" opacity="0.0893333333"></path>
                        <path d="M0,196.278409 C32.6666667,154.21875 60.6666667,154.21875 93.3333333,196.278409 C126,238.338068 154,238.338068 186.666667,196.278409 C219.333333,154.21875 247.333333,154.21875 280,196.278409" stroke="#DDDDDD" opacity="0.0893333333"></path>
                        <path d="M0,65.4261364 C32.6666667,23.3664773 60.6666667,23.3664773 93.3333333,65.4261364 C126,107.485795 154,107.485795 186.666667,65.4261364 C219.333333,23.3664773 247.333333,23.3664773 280,65.4261364" stroke="#DDDDDD" opacity="0.124"></path>
                        <path d="M0,200.017045 C32.6666667,157.957386 60.6666667,157.957386 93.3333333,200.017045 C126,242.076705 154,242.076705 186.666667,200.017045 C219.333333,157.957386 247.333333,157.957386 280,200.017045" stroke="#DDDDDD" opacity="0.124"></path>
                        <path d="M0,69.1647727 C32.6666667,27.1051136 60.6666667,27.1051136 93.3333333,69.1647727 C126,111.224432 154,111.224432 186.666667,69.1647727 C219.333333,27.1051136 247.333333,27.1051136 280,69.1647727" stroke="#DDDDDD" opacity="0.106666667"></path>
                        <path d="M0,203.755682 C32.6666667,161.696023 60.6666667,161.696023 93.3333333,203.755682 C126,245.815341 154,245.815341 186.666667,203.755682 C219.333333,161.696023 247.333333,161.696023 280,203.755682" stroke="#DDDDDD" opacity="0.106666667"></path>
                        <path d="M0,72.9034091 C32.6666667,30.84375 60.6666667,30.84375 93.3333333,72.9034091 C126,114.963068 154,114.963068 186.666667,72.9034091 C219.333333,30.84375 247.333333,30.84375 280,72.9034091" stroke="#DDDDDD" opacity="0.0546666667"></path>
                        <path d="M0,207.494318 C32.6666667,165.434659 60.6666667,165.434659 93.3333333,207.494318 C126,249.553977 154,249.553977 186.666667,207.494318 C219.333333,165.434659 247.333333,165.434659 280,207.494318" stroke="#DDDDDD" opacity="0.0546666667"></path>
                        <path d="M0,76.6420455 C32.6666667,34.5823864 60.6666667,34.5823864 93.3333333,76.6420455 C126,118.701705 154,118.701705 186.666667,76.6420455 C219.333333,34.5823864 247.333333,34.5823864 280,76.6420455" stroke="#DDDDDD" opacity="0.072"></path>
                        <path d="M0,211.232955 C32.6666667,169.173295 60.6666667,169.173295 93.3333333,211.232955 C126,253.292614 154,253.292614 186.666667,211.232955 C219.333333,169.173295 247.333333,169.173295 280,211.232955" stroke="#DDDDDD" opacity="0.072"></path>
                        <path d="M0,80.3806818 C32.6666667,38.3210227 60.6666667,38.3210227 93.3333333,80.3806818 C126,122.440341 154,122.440341 186.666667,80.3806818 C219.333333,38.3210227 247.333333,38.3210227 280,80.3806818" stroke="#DDDDDD" opacity="0.0546666667"></path>
                        <path d="M0,214.971591 C32.6666667,172.911932 60.6666667,172.911932 93.3333333,214.971591 C126,257.03125 154,257.03125 186.666667,214.971591 C219.333333,172.911932 247.333333,172.911932 280,214.971591" stroke="#DDDDDD" opacity="0.0546666667"></path>
                        <path d="M0,84.1193182 C32.6666667,42.0596591 60.6666667,42.0596591 93.3333333,84.1193182 C126,126.178977 154,126.178977 186.666667,84.1193182 C219.333333,42.0596591 247.333333,42.0596591 280,84.1193182" stroke="#DDDDDD" opacity="0.072"></path>
                        <path d="M0,218.710227 C32.6666667,176.650568 60.6666667,176.650568 93.3333333,218.710227 C126,260.769886 154,260.769886 186.666667,218.710227 C219.333333,176.650568 247.333333,176.650568 280,218.710227" stroke="#DDDDDD" opacity="0.072"></path>
                        <path d="M0,87.8579545 C32.6666667,45.7982955 60.6666667,45.7982955 93.3333333,87.8579545 C126,129.917614 154,129.917614 186.666667,87.8579545 C219.333333,45.7982955 247.333333,45.7982955 280,87.8579545" stroke="#DDDDDD" opacity="0.02"></path>
                        <path d="M0,222.448864 C32.6666667,180.389205 60.6666667,180.389205 93.3333333,222.448864 C126,264.508523 154,264.508523 186.666667,222.448864 C219.333333,180.389205 247.333333,180.389205 280,222.448864" stroke="#DDDDDD" opacity="0.02"></path>
                        <path d="M0,91.5965909 C32.6666667,49.5369318 60.6666667,49.5369318 93.3333333,91.5965909 C126,133.65625 154,133.65625 186.666667,91.5965909 C219.333333,49.5369318 247.333333,49.5369318 280,91.5965909" stroke="#222222" opacity="0.098"></path>
                        <path d="M0,226.1875 C32.6666667,184.127841 60.6666667,184.127841 93.3333333,226.1875 C126,268.247159 154,268.247159 186.666667,226.1875 C219.333333,184.127841 247.333333,184.127841 280,226.1875" stroke="#222222" opacity="0.098"></path>
                        <path d="M0,95.3352273 C32.6666667,53.2755682 60.6666667,53.2755682 93.3333333,95.3352273 C126,137.394886 154,137.394886 186.666667,95.3352273 C219.333333,53.2755682 247.333333,53.2755682 280,95.3352273" stroke="#DDDDDD" opacity="0.0373333333"></path>
                        <path d="M0,229.926136 C32.6666667,187.866477 60.6666667,187.866477 93.3333333,229.926136 C126,271.985795 154,271.985795 186.666667,229.926136 C219.333333,187.866477 247.333333,187.866477 280,229.926136" stroke="#DDDDDD" opacity="0.0373333333"></path>
                        <path d="M0,99.0738636 C32.6666667,57.0142045 60.6666667,57.0142045 93.3333333,99.0738636 C126,141.133523 154,141.133523 186.666667,99.0738636 C219.333333,57.0142045 247.333333,57.0142045 280,99.0738636" stroke="#222222" opacity="0.0633333333"></path>
                        <path d="M0,233.664773 C32.6666667,191.605114 60.6666667,191.605114 93.3333333,233.664773 C126,275.724432 154,275.724432 186.666667,233.664773 C219.333333,191.605114 247.333333,191.605114 280,233.664773" stroke="#222222" opacity="0.0633333333"></path>
                        <path d="M0,102.8125 C32.6666667,60.7528409 60.6666667,60.7528409 93.3333333,102.8125 C126,144.872159 154,144.872159 186.666667,102.8125 C219.333333,60.7528409 247.333333,60.7528409 280,102.8125" stroke="#222222" opacity="0.046"></path>
                        <path d="M0,237.403409 C32.6666667,195.34375 60.6666667,195.34375 93.3333333,237.403409 C126,279.463068 154,279.463068 186.666667,237.403409 C219.333333,195.34375 247.333333,195.34375 280,237.403409" stroke="#222222" opacity="0.046"></path>
                        <path d="M0,106.551136 C32.6666667,64.4914773 60.6666667,64.4914773 93.3333333,106.551136 C126,148.610795 154,148.610795 186.666667,106.551136 C219.333333,64.4914773 247.333333,64.4914773 280,106.551136" stroke="#DDDDDD" opacity="0.0546666667"></path>
                        <path d="M0,241.142045 C32.6666667,199.082386 60.6666667,199.082386 93.3333333,241.142045 C126,283.201705 154,283.201705 186.666667,241.142045 C219.333333,199.082386 247.333333,199.082386 280,241.142045" stroke="#DDDDDD" opacity="0.0546666667"></path>
                        <path d="M0,110.289773 C32.6666667,68.2301136 60.6666667,68.2301136 93.3333333,110.289773 C126,152.349432 154,152.349432 186.666667,110.289773 C219.333333,68.2301136 247.333333,68.2301136 280,110.289773" stroke="#222222" opacity="0.0633333333"></path>
                        <path d="M0,244.880682 C32.6666667,202.821023 60.6666667,202.821023 93.3333333,244.880682 C126,286.940341 154,286.940341 186.666667,244.880682 C219.333333,202.821023 247.333333,202.821023 280,244.880682" stroke="#222222" opacity="0.0633333333"></path>
                        <path d="M0,114.028409 C32.6666667,71.96875 60.6666667,71.96875 93.3333333,114.028409 C126,156.088068 154,156.088068 186.666667,114.028409 C219.333333,71.96875 247.333333,71.96875 280,114.028409" stroke="#222222" opacity="0.0806666667"></path>
                        <path d="M0,248.619318 C32.6666667,206.559659 60.6666667,206.559659 93.3333333,248.619318 C126,290.678977 154,290.678977 186.666667,248.619318 C219.333333,206.559659 247.333333,206.559659 280,248.619318" stroke="#222222" opacity="0.0806666667"></path>
                        <path d="M0,117.767045 C32.6666667,75.7073864 60.6666667,75.7073864 93.3333333,117.767045 C126,159.826705 154,159.826705 186.666667,117.767045 C219.333333,75.7073864 247.333333,75.7073864 280,117.767045" stroke="#DDDDDD" opacity="0.124"></path>
                        <path d="M0,252.357955 C32.6666667,210.298295 60.6666667,210.298295 93.3333333,252.357955 C126,294.417614 154,294.417614 186.666667,252.357955 C219.333333,210.298295 247.333333,210.298295 280,252.357955" stroke="#DDDDDD" opacity="0.124"></path>
                        <path d="M0,121.505682 C32.6666667,79.4460227 60.6666667,79.4460227 93.3333333,121.505682 C126,163.565341 154,163.565341 186.666667,121.505682 C219.333333,79.4460227 247.333333,79.4460227 280,121.505682" stroke="#DDDDDD" opacity="0.072"></path>
                        <path d="M0,256.096591 C32.6666667,214.036932 60.6666667,214.036932 93.3333333,256.096591 C126,298.15625 154,298.15625 186.666667,256.096591 C219.333333,214.036932 247.333333,214.036932 280,256.096591" stroke="#DDDDDD" opacity="0.072"></path>
                        <path d="M0,125.244318 C32.6666667,83.1846591 60.6666667,83.1846591 93.3333333,125.244318 C126,167.303977 154,167.303977 186.666667,125.244318 C219.333333,83.1846591 247.333333,83.1846591 280,125.244318" stroke="#DDDDDD" opacity="0.0373333333"></path>
                        <path d="M0,259.835227 C32.6666667,217.775568 60.6666667,217.775568 93.3333333,259.835227 C126,301.894886 154,301.894886 186.666667,259.835227 C219.333333,217.775568 247.333333,217.775568 280,259.835227" stroke="#DDDDDD" opacity="0.0373333333"></path>
                        <path d="M0,128.982955 C32.6666667,86.9232955 60.6666667,86.9232955 93.3333333,128.982955 C126,171.042614 154,171.042614 186.666667,128.982955 C219.333333,86.9232955 247.333333,86.9232955 280,128.982955" stroke="#222222" opacity="0.115333333"></path>
                        <path d="M0,263.573864 C32.6666667,221.514205 60.6666667,221.514205 93.3333333,263.573864 C126,305.633523 154,305.633523 186.666667,263.573864 C219.333333,221.514205 247.333333,221.514205 280,263.573864" stroke="#222222" opacity="0.115333333"></path>
                        <path d="M0,132.721591 C32.6666667,90.6619318 60.6666667,90.6619318 93.3333333,132.721591 C126,174.78125 154,174.78125 186.666667,132.721591 C219.333333,90.6619318 247.333333,90.6619318 280,132.721591" stroke="#DDDDDD" opacity="0.141333333"></path>
                        <path d="M0,267.3125 C32.6666667,225.252841 60.6666667,225.252841 93.3333333,267.3125 C126,309.372159 154,309.372159 186.666667,267.3125 C219.333333,225.252841 247.333333,225.252841 280,267.3125" stroke="#DDDDDD" opacity="0.141333333"></path>
                        <path d="M0,136.460227 C32.6666667,94.4005682 60.6666667,94.4005682 93.3333333,136.460227 C126,178.519886 154,178.519886 186.666667,136.460227 C219.333333,94.4005682 247.333333,94.4005682 280,136.460227" stroke="#DDDDDD" opacity="0.02"></path>
                        <path d="M0,271.051136 C32.6666667,228.991477 60.6666667,228.991477 93.3333333,271.051136 C126,313.110795 154,313.110795 186.666667,271.051136 C219.333333,228.991477 247.333333,228.991477 280,271.051136" stroke="#DDDDDD" opacity="0.02"></path>
                        <path d="M0,140.198864 C32.6666667,98.1392045 60.6666667,98.1392045 93.3333333,140.198864 C126,182.258523 154,182.258523 186.666667,140.198864 C219.333333,98.1392045 247.333333,98.1392045 280,140.198864" stroke="#222222" opacity="0.098"></path>
                        <path d="M0,274.789773 C32.6666667,232.730114 60.6666667,232.730114 93.3333333,274.789773 C126,316.849432 154,316.849432 186.666667,274.789773 C219.333333,232.730114 247.333333,232.730114 280,274.789773" stroke="#222222" opacity="0.098"></path>
                        <path d="M0,143.9375 C32.6666667,101.877841 60.6666667,101.877841 93.3333333,143.9375 C126,185.997159 154,185.997159 186.666667,143.9375 C219.333333,101.877841 247.333333,101.877841 280,143.9375" stroke="#222222" opacity="0.046"></path>
                        <path d="M0,278.528409 C32.6666667,236.46875 60.6666667,236.46875 93.3333333,278.528409 C126,320.588068 154,320.588068 186.666667,278.528409 C219.333333,236.46875 247.333333,236.46875 280,278.528409" stroke="#222222" opacity="0.046"></path>
                        <path d="M0,147.676136 C32.6666667,105.616477 60.6666667,105.616477 93.3333333,147.676136 C126,189.735795 154,189.735795 186.666667,147.676136 C219.333333,105.616477 247.333333,105.616477 280,147.676136" stroke="#DDDDDD" opacity="0.0546666667"></path>
                        <path d="M0,282.267045 C32.6666667,240.207386 60.6666667,240.207386 93.3333333,282.267045 C126,324.326705 154,324.326705 186.666667,282.267045 C219.333333,240.207386 247.333333,240.207386 280,282.267045" stroke="#DDDDDD" opacity="0.0546666667"></path>
                        <path d="M0,151.414773 C32.6666667,109.355114 60.6666667,109.355114 93.3333333,151.414773 C126,193.474432 154,193.474432 186.666667,151.414773 C219.333333,109.355114 247.333333,109.355114 280,151.414773" stroke="#DDDDDD" opacity="0.106666667"></path>
                        <path d="M0,286.005682 C32.6666667,243.946023 60.6666667,243.946023 93.3333333,286.005682 C126,328.065341 154,328.065341 186.666667,286.005682 C219.333333,243.946023 247.333333,243.946023 280,286.005682" stroke="#DDDDDD" opacity="0.106666667"></path>
                        <path d="M0,155.153409 C32.6666667,113.09375 60.6666667,113.09375 93.3333333,155.153409 C126,197.213068 154,197.213068 186.666667,155.153409 C219.333333,113.09375 247.333333,113.09375 280,155.153409" stroke="#DDDDDD" opacity="0.02"></path>
                        <path d="M0,289.744318 C32.6666667,247.684659 60.6666667,247.684659 93.3333333,289.744318 C126,331.803977 154,331.803977 186.666667,289.744318 C219.333333,247.684659 247.333333,247.684659 280,289.744318" stroke="#DDDDDD" opacity="0.02"></path>
                        <path d="M0,158.892045 C32.6666667,116.832386 60.6666667,116.832386 93.3333333,158.892045 C126,200.951705 154,200.951705 186.666667,158.892045 C219.333333,116.832386 247.333333,116.832386 280,158.892045" stroke="#222222" opacity="0.132666667"></path>
                        <path d="M0,293.482955 C32.6666667,251.423295 60.6666667,251.423295 93.3333333,293.482955 C126,335.542614 154,335.542614 186.666667,293.482955 C219.333333,251.423295 247.333333,251.423295 280,293.482955" stroke="#222222" opacity="0.132666667"></path>
                        <path d="M0,162.630682 C32.6666667,120.571023 60.6666667,120.571023 93.3333333,162.630682 C126,204.690341 154,204.690341 186.666667,162.630682 C219.333333,120.571023 247.333333,120.571023 280,162.630682" stroke="#DDDDDD" opacity="0.0373333333"></path>
                    </g>
                </g>
            </g>
        </g>
    </g>
</svg>