<svg width="116" height="30" viewBox="0 0 116 30" version="1.1" xmlns="http://www.w3.org/2000/svg" xmlns:xlink="http://www.w3.org/1999/xlink">
  <g id="files-sm" fill="#717171">
    <path class="file-zip" d="M4,10 L5,10 L5,11 L4,11 L4,10 Z M5,9 L6,9 L6,10 L5,10 L5,9 Z M5,15 L6,15 L6,16 L5,16 L5,15 Z M5,11 L6,11 L6,12 L5,12 L5,11 Z M14,23 L1,23 L1,8 L4,8 L4,9 L5,9 L5,8 L10.1,8 L14,11.8 L14,23 L14,23 Z M1,7 C0.5,7 0,7.5 0,8 L0,23 C0,23.7 0.5,24 1,24 L14,24 C14.5,24 15,23.6 15,23 L15,11.2 L10.6,7 L1,7 L1,7 Z M6,18 L6,19 L4,19 L4,18 L6,18 L6,18 Z M5,13 L6,13 L6,14 L5,14 L5,13 Z M4,14 L5,14 L5,15 L4,15 L4,14 Z M4,12 L5,12 L5,13 L4,13 L4,12 Z M4,17 C3,17.8 3,18.3 3,19 L3,20 L7,20 L7,19 C7,17.9 7,17.8 6,17 L5,17 L5,16 L4,16 L4,17 L4,17 Z"></path>
    <path class="file-graph" d="M31,21 L29,21 L29,13 L31,13 L31,21 L31,21 Z M28,9 L26,9 L26,21 L28,21 L28,9 L28,9 Z M24,7 L23,7 L23,23 L36,23 L36,22 L24,22 L24,7 L24,7 Z M32,21 L34,21 L34,16 L32,16 L32,21 L32,21 Z M33.9,4 L40,10 L40,25.9 C40,26.3 39.2,27 38.9,27 L21.1,27 C20.8,27 20,26.3 20,25.9 L20,5 C20,4.4 20.4,4 21,4 L33.9,4 L33.9,4 Z M39,10.5 L33.4,5 L21,5 L21,26 L39,26 L39,10.5 L39,10.5 Z"></path>
    <path class="file-code" d="M71,28.8 C71,29.4 70.5,30 69.8,30 L46.2,30 C45.6,30 45,29.5 45,28.8 L45,1.1 C45,0.5 45.3,5.68434189e-14 46,5.68434189e-14 L63.5,0 L71,7.5 L71,28.8 Z M70,8 L63,1 L46,1 L46,29 L70,29 L70,8 Z M60.5,11 L66,16.5 L60.5,22 L59,20.5 L63,16.5 L59,12.5 L60.5,11 Z M55.5,11 L50,16.5 L55.5,22 L57,20.5 L53,16.5 L57,12.5 L55.5,11 Z"></path>
    <path class="file-generic" d="M89.9,4 L96,10 L96,25.9 C96,26.3 95.2,27 94.9,27 L77.1,27 C76.8,27 76,26.3 76,25.9 L76,5 C76,4.6 76.5,4 77,4 L89.9,4 Z M95,10.5 L89.4,5 L77,5 L77,26 L95,26 L95,10.5 Z M86,9 L79,9 L79,10 L86,10 L86,9 Z M79,15 L92,15 L92,16 L79,16 L79,15 Z M79,18 L92,18 L92,17 L79,17 L79,18 Z M79,20 L92,20 L92,19 L79,19 L79,20 Z M79,22 L92,22 L92,21 L79,21 L79,22 Z"></path>
    <path class="file-acrobat" d="M111.6,7 L102,7 C101.5,7 101,7.5 101,8 L101,23 C101,23.5 101.5,24 102,24 L115,24 C115.5,24 116,23.5 116,23 L116,11.2 L111.6,7 Z M113.9,16.5 C113.6,16.4 113.2,16.4 112.9,16.4 C112.4,16.4 111.9,16.5 111.3,16.5 C111,16.4 110.6,16.1 110,15.7 C109.4,15.3 108.9,14.2 108.3,12.6 C108.5,11.5 108.6,10.6 108.6,10 C108.7,9.3 108.7,9 108.6,9 C108.7,8.6 108.6,8.2 108.4,8 L111,8 L115,12 L115,17 C115,17 114.2,16.5 113.9,16.5 Z M102,8 L106.3,8 C106.2,8.1 106.2,8.2 106.2,8.4 C106.1,8.9 106,9.6 106.1,10.3 C106.2,11.1 106.4,11.9 106.6,12.6 C106.3,13.6 105.8,14.7 105.2,16.1 C104.5,17.5 104.2,18.2 104,18.5 C103.8,18.6 103.5,18.7 103.1,18.9 C102.8,19 102.3,19.7 102,20 L102,10 L102,8 Z M102,23 C102.3,22.9 102.8,22.8 103.1,22.6 C103.7,22.1 104.6,21.7 106,20 C106.4,19.8 107.3,19.8 107.6,19.7 L108.1,19.5 C108.8,19.3 109.3,19.2 110,19 C110.7,18.8 111.3,18.8 112,18.7 C112.6,19 112.1,18.6 112.7,18.7 C113.4,18.9 113.9,19 114.3,19 L115,19 L115,23 L102,23 Z M108.9,16.6 C109.4,16.9 109.8,17.1 110.2,17.2 C109.4,17.3 108.6,17.5 107.9,17.7 C107.1,17.9 106.3,18.2 105.5,18.5 L106.3,16.9 C106.8,15.8 107.2,14.8 107.5,13.9 L107.5,14 C108,15.4 108.5,16.3 108.9,16.6 L108.9,16.6 Z"></path>
  </g>
</svg>
